<svg width="473" height="294" viewBox="0 0 473 294" fill="none" xmlns="http://www.w3.org/2000/svg">
<path d="M393.299 84H0.299316V0H393.299V84Z" fill="white"/>
<path d="M51.2235 63.3384C63.0084 63.3384 72.562 53.7849 72.562 42C72.562 30.2151 63.0084 20.6615 51.2235 20.6615C39.4386 20.6615 29.885 30.2151 29.885 42C29.885 53.7849 39.4386 63.3384 51.2235 63.3384Z" fill="#6C5CE7"/>
<path d="M100.505 27.7743C99.5619 27.7743 98.6573 28.149 97.9904 28.8159C97.3234 29.4829 96.9487 30.3875 96.9487 31.3307C96.9487 32.2739 97.3234 33.1785 97.9904 33.8455C98.6573 34.5124 99.5619 34.8871 100.505 34.8871H360.164C361.106 34.8849 362.009 34.5092 362.674 33.8425C363.339 33.1758 363.712 32.2725 363.712 31.3307C363.712 30.3889 363.339 29.4856 362.674 28.8189C362.009 28.1522 361.106 27.7765 360.164 27.7743H100.505Z" fill="#3F3D56"/>
<path d="M100.505 49.1128C99.5619 49.1108 98.6565 49.4836 97.9881 50.1491C97.3197 50.8147 96.9432 51.7185 96.9412 52.6617C96.9392 53.6049 97.312 54.5103 97.9775 55.1787C98.6431 55.847 99.5468 56.2236 100.49 56.2256H264.649C265.117 56.2264 265.58 56.135 266.012 55.9566C266.444 55.7782 266.837 55.5164 267.168 55.1861C267.499 54.8558 267.761 54.4634 267.941 54.0316C268.12 53.5997 268.212 53.1367 268.212 52.6692C268.212 52.2017 268.12 51.7387 267.941 51.3068C267.761 50.875 267.499 50.4827 267.168 50.1523C266.837 49.822 266.444 49.5602 266.012 49.3818C265.58 49.2034 265.117 49.112 264.649 49.1128H100.505Z" fill="#3F3D56"/>
<path d="M393.299 84H0.299316V0H393.299V84ZM6.29932 78H387.299V6H6.29932V78Z" fill="#CCCCCC"/>
<path d="M393.299 189H0.299316V105H393.299V189Z" fill="white"/>
<path d="M51.2235 168.338C63.0084 168.338 72.562 158.785 72.562 147C72.562 135.215 63.0084 125.661 51.2235 125.661C39.4386 125.661 29.885 135.215 29.885 147C29.885 158.785 39.4386 168.338 51.2235 168.338Z" fill="#E6E6E6"/>
<path d="M100.505 132.774C99.5619 132.774 98.6573 133.149 97.9904 133.816C97.3234 134.483 96.9487 135.388 96.9487 136.331C96.9487 137.274 97.3234 138.179 97.9904 138.846C98.6573 139.513 99.5619 139.887 100.505 139.887H360.164C361.106 139.885 362.009 139.509 362.674 138.843C363.339 138.176 363.712 137.273 363.712 136.331C363.712 135.389 363.339 134.486 362.674 133.819C362.009 133.152 361.106 132.777 360.164 132.774H100.505Z" fill="#E6E6E6"/>
<path d="M100.505 154.113C99.5619 154.111 98.6565 154.484 97.9881 155.149C97.3197 155.815 96.9432 156.719 96.9412 157.662C96.9392 158.605 97.312 159.51 97.9775 160.179C98.6431 160.847 99.5468 161.224 100.49 161.226H264.649C265.117 161.226 265.58 161.135 266.012 160.957C266.444 160.778 266.837 160.516 267.168 160.186C267.499 159.856 267.761 159.463 267.941 159.032C268.12 158.6 268.212 158.137 268.212 157.669C268.212 157.202 268.12 156.739 267.941 156.307C267.761 155.875 267.499 155.483 267.168 155.152C266.837 154.822 266.444 154.56 266.012 154.382C265.58 154.203 265.117 154.112 264.649 154.113H100.505Z" fill="#E6E6E6"/>
<path d="M393.299 189H0.299316V105H393.299V189ZM6.29932 183H387.299V111H6.29932V183Z" fill="#E6E6E6"/>
<path d="M393.299 294H0.299316V210H393.299V294Z" fill="white"/>
<path d="M51.2235 273.339C63.0084 273.339 72.562 263.785 72.562 252C72.562 240.215 63.0084 230.662 51.2235 230.662C39.4386 230.662 29.885 240.215 29.885 252C29.885 263.785 39.4386 273.339 51.2235 273.339Z" fill="#E6E6E6"/>
<path d="M100.505 237.774C99.5619 237.774 98.6573 238.149 97.9904 238.816C97.3234 239.483 96.9487 240.388 96.9487 241.331C96.9487 242.274 97.3234 243.179 97.9904 243.846C98.6573 244.513 99.5619 244.887 100.505 244.887H360.164C361.106 244.885 362.009 244.509 362.674 243.843C363.339 243.176 363.712 242.273 363.712 241.331C363.712 240.389 363.339 239.486 362.674 238.819C362.009 238.152 361.106 237.777 360.164 237.774H100.505Z" fill="#E6E6E6"/>
<path d="M100.505 259.113C99.5619 259.111 98.6565 259.484 97.9881 260.149C97.3197 260.815 96.9432 261.719 96.9412 262.662C96.9392 263.605 97.312 264.51 97.9775 265.179C98.6431 265.847 99.5468 266.224 100.49 266.226H264.649C265.117 266.226 265.58 266.135 266.012 265.957C266.444 265.778 266.837 265.516 267.168 265.186C267.499 264.856 267.761 264.463 267.941 264.032C268.12 263.6 268.212 263.137 268.212 262.669C268.212 262.202 268.12 261.739 267.941 261.307C267.761 260.875 267.499 260.483 267.168 260.152C266.837 259.822 266.444 259.56 266.012 259.382C265.58 259.203 265.117 259.112 264.649 259.113H100.505Z" fill="#E6E6E6"/>
<path d="M393.299 294H0.299316V210H393.299V294ZM6.29932 288H387.299V216H6.29932V288Z" fill="#E6E6E6"/>
<path d="M446.127 68.4002C460.727 68.4002 472.563 56.5643 472.563 41.9639C472.563 27.3635 460.727 15.5276 446.127 15.5276C431.526 15.5276 419.69 27.3635 419.69 41.9639C419.69 56.5643 431.526 68.4002 446.127 68.4002Z" fill="#6C5CE7"/>
<path d="M443.607 53.123L435.695 42.95L440.296 39.371L444.043 44.188L456.699 30.827L460.932 34.837L443.607 53.123Z" fill="white"/>
</svg>
